<?xml version="1.0" encoding="UTF-8" standalone="no"?>
<!-- Created with Inkscape (http://www.inkscape.org/) -->

<svg
   width="432.09326mm"
   height="375.72763mm"
   viewBox="0 0 432.09326 375.72763"
   version="1.1"
   id="svg5"
   xml:space="preserve"
   xmlns="http://www.w3.org/2000/svg"
   xmlns:svg="http://www.w3.org/2000/svg"><defs
     id="defs2" /><g
     id="layer1"
     transform="translate(-1178.6503,811.78123)"><path
       style="fill:#000000;stroke-width:0.264583"
       d="m 1388.3242,-436.29986 c -5.216,-0.75221 -10.2727,-3.39312 -14.1063,-7.36714 -2.0206,-2.09473 -3.1659,-3.77931 -4.5432,-6.68245 -6.4018,-13.49404 0.9843,-29.69797 15.4745,-33.94855 2.8966,-0.84969 7.6789,-1.15187 10.7144,-0.67705 10.0644,1.57438 18.2013,9.45071 20.2601,19.61124 0.5395,2.66248 0.4029,8.23934 -0.2621,10.70427 -1.4429,5.34787 -4.7234,10.32066 -8.9566,13.57657 -5.1185,3.93692 -12.0591,5.72357 -18.5808,4.78311 z m 5.9832,-12.13996 c 0.7839,-0.14443 2.2927,-0.69871 3.353,-1.23174 7.331,-3.68548 8.9815,-13.5401 3.2644,-19.49053 -7.1671,-7.45958 -19.5375,-3.58595 -21.2275,6.64702 -1.362,8.24741 6.2803,15.60997 14.6101,14.07525 z m 125.9561,12.12821 c -4.109,-0.58838 -8.6063,-2.61138 -12.0738,-5.4311 -8.518,-6.92676 -11.2761,-19.39803 -6.4998,-29.38963 1.3485,-2.82093 2.3529,-4.27574 4.49,-6.50359 7.5219,-7.84132 18.9756,-9.83938 28.7235,-5.01078 6.3077,3.12449 10.9726,8.8582 12.8681,15.81634 0.8555,3.14037 0.8615,9.15884 0.012,12.28545 -1.2455,4.58573 -3.2798,8.06807 -6.6564,11.39476 -5.5245,5.44285 -13.1518,7.94284 -20.8639,6.83855 z m 7.5588,-12.51836 c 2.0076,-0.61442 4.5058,-2.42684 5.9303,-4.3025 4.8544,-6.39191 2.6078,-15.32477 -4.7288,-18.8019 -2.0007,-0.94819 -2.1425,-0.9753 -5.1006,-0.9753 -2.9526,0 -3.103,0.0286 -5.0793,0.96546 -3.5302,1.67357 -5.9882,4.60359 -6.9457,8.27947 -1.7253,6.6239 2.393,13.39131 9.2066,15.1288 1.6655,0.42471 4.8202,0.28662 6.7175,-0.29403 z m -178.7887,-42.91349 c -3.0079,-0.46606 -5.1675,-1.5249 -7.3138,-3.58582 -4.5617,-4.38039 -5.253,-11.07815 -1.6873,-16.34797 0.5415,-0.80036 4.8729,-6.57489 9.6252,-12.83229 8.5608,-11.27199 10.2938,-13.55683 20.5458,-27.08889 2.9086,-3.83931 5.2885,-7.18825 5.2885,-7.44209 0,-1.05278 -0.5134,-1.07707 -5.9763,-0.28292 -6.9747,1.01393 -9.7856,1.19811 -12.5216,0.82052 -6.9949,-0.96538 -11.1761,-4.73048 -16.3492,-14.72237 -2.9966,-5.78799 -8.1245,-17.18744 -34.0843,-75.77071 -1.7088,-3.85631 -3.376,-7.60677 -3.7049,-8.33438 -0.3289,-0.7276 -2.2054,-4.95432 -4.1699,-9.39271 -1.9645,-4.43838 -3.9253,-8.8437 -4.3573,-9.78958 -0.432,-0.94589 -1.1757,-2.61276 -1.6527,-3.70417 -0.4771,-1.0914 -3.6623,-8.23515 -7.0783,-15.875 -15.5577,-34.7944 -21.6124,-48.08615 -25.7317,-56.48854 -1.8684,-3.81102 -2.2687,-4.42792 -4.0127,-6.18381 -9.4838,-9.54868 -36.856,-21.09167 -61.2039,-25.8099 -1.8917,-0.3666 -4.8683,-0.9085 -6.6145,-1.20424 -4.7891,-0.81104 -5.8968,-1.16774 -7.014,-2.25871 -1.4434,-1.40936 -2.2094,-3.12057 -2.3325,-5.21048 -0.1243,-2.10826 -0.1617,-1.98885 3.5757,-11.42286 l 2.8169,-7.11084 3.0644,0.18238 c 17.6911,1.0529 43.3387,8.55707 63.1249,18.46955 18.6272,9.3319 34.1419,20.64391 49.0802,35.78519 7.3292,7.4288 11.7027,11.37203 18.5949,16.76521 3.8594,3.02 10.978,7.97455 11.4577,7.97455 0.1957,0 3.7235,0.17751 7.8396,0.39448 7.2978,0.38467 15.1231,0.77418 103.5276,5.15322 23.4288,1.16052 43.729,2.17404 45.1114,2.25226 1.3825,0.0782 4.9544,0.261 7.9375,0.4062 13.1848,0.64171 91.3643,4.52522 98.2959,4.88277 8.3072,0.4285 9.6265,0.65697 11.9031,2.06134 2.4712,1.5244 4.124,3.49945 5.0442,6.02769 0.7939,2.18109 0.8677,4.0869 0.358,9.24912 -0.2658,2.69214 -0.9105,9.35964 -1.4325,14.81667 -4.571,47.78024 -7.5224,77.26837 -7.9534,79.46303 -1.5703,7.99727 -6.2237,11.68205 -18.7868,14.87615 -7.3937,1.87981 -16.774,3.54396 -45.3597,8.04727 -7.4943,1.18063 -14.3544,2.38409 -15.2446,2.67436 -2.4037,0.78372 -4.6962,2.46044 -6.9619,5.09191 -1.1016,1.27939 -2.6577,2.77923 -3.4581,3.33293 -2.9642,2.0507 1.8965,1.16546 -62.574,11.39624 -10.1864,1.61649 -24.0572,3.82034 -30.8239,4.89746 -6.7667,1.07715 -16.5286,2.63051 -21.693,3.45194 -5.1645,0.82145 -9.7162,1.66227 -10.1149,1.86846 -0.3988,0.20622 -2.3051,2.47309 -4.2362,5.03754 -1.9311,2.56442 -3.8958,5.15223 -4.3659,5.75066 -0.4702,0.59846 -3.733,4.8981 -7.2508,9.55477 -3.5178,4.65666 -9.5389,12.61052 -13.3803,17.67522 -3.8414,5.06471 -7.051,9.38223 -7.1325,9.59451 -0.081,0.21227 0,0.56303 0.1785,0.77946 0.2881,0.34719 13.7779,0.39352 114.5706,0.39352 111.1561,0 114.2873,0.0135 115.8456,0.49847 0.8809,0.27416 2.1135,0.79849 2.7393,1.1652 1.4343,0.84061 3.6776,3.19672 4.4095,4.63153 0.6488,1.27172 1.3509,3.80431 1.3509,4.87289 v 0.73816 l -119.5255,-0.036 c -65.739,-0.0198 -119.8232,-0.0822 -120.187,-0.13851 z m 18.3886,-77.21883 c 1.6007,-0.24453 2.9514,-0.48422 3.0016,-0.53266 0.05,-0.0484 -0.5839,-2.20996 -1.4092,-4.80341 -0.8252,-2.59344 -2.3163,-7.27519 -3.3134,-10.40389 -0.9972,-3.1287 -2.6635,-8.36745 -3.703,-11.64167 -1.0395,-3.27422 -2.7195,-8.54273 -3.7332,-11.70781 l -1.8433,-5.75469 h -11.6494 -11.6493 l 0.1842,0.5806 c 0.1589,0.50065 4.9341,11.29459 8.0537,18.20482 0.5584,1.23693 1.8582,4.12213 2.8884,6.41157 6.2867,13.97055 9.2702,18.78491 12.358,19.94109 1.3042,0.48837 6.6437,0.34322 10.8149,-0.29395 z m 16.5354,-2.51532 c 4.0012,-0.60267 7.2926,-1.11609 7.3143,-1.14093 0.022,-0.0249 -2.4469,-9.27251 -5.4856,-20.55038 -3.0388,-11.27786 -5.5265,-20.53497 -5.5284,-20.57135 -0.01,-0.17296 -18.5243,-0.0407 -18.5243,0.13229 0,0.10914 0.348,1.27 0.7734,2.57969 0.4253,1.30968 1.5637,4.88156 2.5298,7.9375 2.8459,9.00316 5.1286,16.18459 6.2234,19.57917 0.5632,1.74625 1.7543,5.47772 2.6469,8.29214 1.517,4.78325 1.6604,5.10802 2.1992,4.97737 0.3169,-0.0769 3.85,-0.63286 7.8513,-1.2355 z m 20.9692,-3.19672 c 4.4612,-0.66572 7.6049,-1.25055 7.6021,-1.4143 -0.01,-0.33729 -0.2938,-1.56298 -4.7604,-20.25529 -1.9298,-8.0764 -3.6442,-15.27969 -3.8097,-16.00729 l -0.3009,-1.32292 -9.0559,-0.0696 c -7.2146,-0.0555 -9.0559,0 -9.0559,0.26882 0,0.30236 2.1134,8.24934 8.6575,32.55589 1.8874,7.0103 2.0941,7.61011 2.584,7.49973 0.2929,-0.066 3.9555,-0.63075 8.1392,-1.25503 z m 25.5302,-3.85622 c 2.6546,-0.39267 4.9659,-0.80002 5.1361,-0.90522 0.2255,-0.13938 -0.3529,-3.37677 -2.1305,-11.92319 -1.342,-6.4525 -2.9267,-14.14285 -3.5214,-17.08965 l -1.0814,-5.35781 h -10.0152 c -5.9824,0 -10.0151,0.0989 -10.0151,0.24554 0,0.25646 1.0218,4.6946 2.3802,10.3378 0.4379,1.81901 1.4568,6.10526 2.2644,9.525 0.8075,3.41974 2.0628,8.66973 2.7896,11.66664 l 1.3213,5.44894 4.0227,-0.61707 c 2.2125,-0.33938 6.1947,-0.93831 8.8493,-1.33098 z m 18.9209,-2.89309 c 4.4014,-0.67059 8.0228,-1.23648 8.0474,-1.25748 0.025,-0.0209 -1.172,-7.00305 -2.6592,-15.51562 l -2.704,-15.47739 -9.0486,-0.0696 c -5.1692,-0.0398 -9.0486,0.0314 -9.0486,0.16608 0,0.21614 6.4224,31.41594 6.7472,32.77801 0.078,0.32743 0.2593,0.59532 0.4026,0.59532 0.1434,0 3.8618,-0.5487 8.2632,-1.21931 z m 22.2901,-3.42151 c 4.5111,-0.68368 8.2236,-1.26034 8.2499,-1.28143 0.026,-0.0212 -0.81,-6.22795 -1.8586,-13.79297 l -1.9065,-13.75458 -9.5607,-0.0694 c -9.0153,-0.0655 -9.5545,-0.0428 -9.4531,0.39687 0.1037,0.4495 3.9516,22.49869 4.8058,27.53768 0.3848,2.27018 0.4615,2.45491 0.9695,2.336 0.3034,-0.071 4.2425,-0.68847 8.7537,-1.37215 z m 23.0187,-3.54166 8.2021,-1.2618 -0.05,-0.76795 c -0.087,-1.34432 -2.2012,-21.6339 -2.3474,-22.52996 l -0.1402,-0.8599 h -9.6504 -9.6503 l 0.1277,0.59531 c 0.07,0.32743 0.3067,1.905 0.5256,3.50573 1.9202,14.04491 3.1151,22.49544 3.2003,22.63336 0.056,0.0907 0.4346,0.11586 0.8412,0.0559 0.4065,-0.0599 4.4301,-0.67676 8.9413,-1.37073 z m 22.5558,-3.50435 8.7974,-1.3747 v -0.81142 c 0,-0.44628 -0.2981,-4.80002 -0.6573,-9.67497 -0.3593,-4.87495 -0.6551,-9.13143 -0.6573,-9.45886 v -0.59531 h -9.6573 c -5.3116,0 -9.6567,0.0893 -9.656,0.19844 0,0.10914 0.5366,5.25703 1.1907,11.43974 0.654,6.18273 1.1892,11.33218 1.1892,11.44323 0,0.30932 0.079,0.29953 9.4589,-1.16615 z m 24.3348,-3.82112 6.4093,-1.01084 -0.134,-5.82967 c -0.074,-3.20633 -0.2011,-7.05006 -0.2832,-8.54165 l -0.1492,-2.71198 h -8.8381 -8.8381 v 1.08112 c 0,1.20385 0.9734,15.21862 1.2038,17.33261 l 0.147,1.34813 2.0366,-0.32845 c 1.1201,-0.18066 4.9208,-0.78332 8.4459,-1.33927 z m 19.9167,-3.2522 c 4.1474,-0.71324 8.3443,-1.44801 9.3266,-1.63283 l 1.7859,-0.33599 v -6.43657 -6.43655 h -10.0958 -10.0958 l 0.1731,4.56406 c 0.095,2.51024 0.1735,6.14165 0.174,8.0698 0,3.45905 0.01,3.50573 0.5961,3.5053 0.3274,-2.1e-4 3.9886,-0.58399 8.1359,-1.29722 z m 19.7668,-3.98354 c 3.5109,-0.92324 6.5125,-2.12786 8.016,-3.21697 1.2183,-0.88254 1.9409,-2.29608 2.2156,-4.33414 0.098,-0.7276 0.2454,-1.77133 0.3275,-2.31939 l 0.1492,-0.9965 -7.2339,0.0705 -7.2339,0.0704 -0.071,5.75469 c -0.066,5.35583 -0.039,5.75458 0.3969,5.753 0.2575,0 1.8028,-0.35264 3.4339,-0.78158 z m -202.4243,-16.28058 c -0.1294,-0.3374 -1.1117,-3.96002 -4.2688,-15.74449 -0.4873,-1.81901 -1.1263,-4.20026 -1.4199,-5.29166 -0.2937,-1.09141 -0.9641,-3.59172 -1.4899,-5.55625 -0.5258,-1.96453 -1.0781,-3.95883 -1.2273,-4.43177 l -0.2714,-0.8599 h -10.1659 c -5.5913,0 -10.1659,0.0538 -10.1659,0.11949 0,0.12287 1.1404,3.73184 3.3067,10.46384 2.0648,6.41699 6.2594,19.65315 6.5401,20.63751 0.1452,0.50932 0.2993,0.98557 0.3425,1.05833 0.043,0.0728 4.3283,0.0996 9.5225,0.0595 8.1005,-0.0624 9.423,-0.12708 9.2973,-0.45463 z m 48.0852,-3.76026 c -0.4778,-2.29846 -1.8889,-9.12011 -3.1357,-15.15923 -1.2467,-6.03911 -2.3583,-11.39692 -2.47,-11.90625 l -0.2032,-0.92604 -10.669,-0.0692 -10.6691,-0.0692 0.1858,0.73063 c 0.1022,0.40185 1.4883,6.20751 3.0803,12.90147 3.5782,15.04519 4.1925,17.6053 4.3639,18.18693 0.1251,0.42462 0.8998,0.46519 10.1067,0.52916 5.4841,0.0381 10.0405,0.0449 10.1252,0.0151 0.085,-0.0299 -0.237,-1.93487 -0.7149,-4.23332 z m 46.3165,-11.71964 c -1.2143,-8.65849 -2.2131,-15.89154 -2.2197,-16.07344 -0.01,-0.25865 -2.232,-0.33073 -10.1984,-0.33073 -6.0184,0 -10.1865,0.0995 -10.1865,0.24323 0,0.29165 4.9218,28.65938 5.3166,30.64354 l 0.2758,1.38576 9.4408,0.0695 c 5.1924,0.0382 9.5169,0.0101 9.6099,-0.0628 0.093,-0.0728 -0.8243,-7.21651 -2.0385,-15.875 z m 25.0397,0.52466 c -0.8709,-8.21945 -1.613,-15.39094 -1.6491,-15.93664 l -0.066,-0.99219 h -10.2996 -10.2994 l 0.1502,1.12448 c 0.083,0.61846 1.0806,7.87961 2.2177,16.13587 l 2.0673,15.01138 9.6573,0.0699 c 6.3799,0.0461 9.6823,-0.0214 9.731,-0.19923 0.041,-0.14801 -0.6388,-6.9941 -1.5096,-15.21355 z m -143.794,14.22586 c -1.9104,-6.22233 -9.7988,-30.80477 -9.9345,-30.95862 -0.098,-0.11044 -6.449,-0.16997 -14.1145,-0.13229 l -13.9373,0.0685 6.7623,15.21354 c 3.7193,8.36745 6.9262,15.6005 7.1264,16.07344 l 0.3641,0.8599 h 12.0393 12.0394 z m 47.8617,0.79375 c -0.065,-0.1819 -0.9462,-3.84307 -1.9592,-8.13594 -2.1073,-8.93008 -4.9092,-20.7025 -5.3685,-22.55573 l -0.3114,-1.25677 h -9.6073 c -6.494,0 -9.6072,0.0895 -9.6072,0.27603 0,0.24605 1.3624,5.37906 6.247,23.53647 0.8026,2.98318 1.6459,6.10857 1.8743,6.94531 l 0.4151,1.52136 h 9.2172 c 7.26,0 9.1923,-0.0702 9.1,-0.33073 z m 48.7078,-0.39688 c -0.2199,-1.05703 -5.4469,-31.16473 -5.4469,-31.37467 0,-0.0973 -4.3457,-0.17689 -9.6573,-0.17689 -8.296,0 -9.6572,0.0545 -9.6572,0.3868 0,0.39349 6.2806,30.95662 6.4858,31.56164 0.087,0.25606 2.1798,0.33073 9.2696,0.33073 h 9.1574 z m 73.1338,-0.13229 c 0,-0.47294 -0.1173,-2.40771 -0.2597,-4.29948 -0.7695,-10.21693 -1.8564,-25.62842 -1.8564,-26.32184 v -0.79795 h -10.335 -10.3349 l 0.1523,1.12448 c 0.084,0.61846 0.8059,7.43479 1.6046,15.1474 0.7987,7.7126 1.5218,14.4694 1.6069,15.0151 l 0.1547,0.99219 h 9.6341 9.634 v -0.8599 z m 23.1579,-3.83646 c -0.1632,-4.7893 -0.6647,-24.79068 -0.6666,-26.59062 v -0.99219 h -9.9095 -9.9094 l 0.1309,1.25677 c 0.1159,1.11244 2.2247,30.32369 2.2252,30.82396 10e-5,0.10914 4.1156,0.19844 9.1454,0.19844 h 9.1451 l -0.16,-4.69636 z m 25.2614,-11.44323 v -16.13958 h -10.451 -10.451 l -0.01,1.25677 c 0,0.69122 0.1386,7.95404 0.3158,16.13959 l 0.322,14.88281 h 10.1353 10.1352 v -16.13959 z m 19.8438,15.76002 c 0,-0.37746 2.7876,-29.01306 3.0088,-30.90741 l 0.1158,-0.99219 h -9.1029 -9.103 v 16.13958 16.13959 h 7.5407 c 6.3736,0 7.5406,-0.0587 7.5406,-0.37957 z m -250.9171,-41.4628 c -0.7961,-2.5256 -3.0656,-9.66343 -5.0433,-15.86182 -1.9777,-6.1984 -3.5959,-11.40739 -3.5959,-11.57552 0,-0.34987 -32.8042,-0.4571 -32.8137,-0.10727 0,0.10914 3.1787,7.37094 7.0703,16.13733 l 7.0757,15.9389 14.2948,0.0684 c 7.8621,0.0376 14.3319,0.0512 14.3771,0.0302 0.045,-0.021 -0.569,-2.1046 -1.365,-4.63021 z m 51.9504,4.42843 c 0,-0.0253 -1.7108,-7.24445 -3.8018,-16.04258 l -3.8018,-15.99661 -10.2211,-0.0693 c -5.6216,-0.0381 -10.2211,0.0291 -10.2211,0.1493 0,0.12021 0.6401,2.59215 1.4224,5.49321 0.7823,2.90106 2.7091,10.06543 4.2818,15.92081 l 2.8594,10.64615 9.2781,0.0695 c 8.0946,0.0606 10.2041,0.0254 10.2041,-0.17051 z m 126.96,-16.01383 -1.1506,-16.15737 -10.9172,-1.4e-4 -10.9172,-1.4e-4 0.1438,0.99219 c 0.079,0.5457 0.7934,7.24296 1.5872,14.88281 0.7939,7.63984 1.5155,14.45478 1.6035,15.14431 l 0.1602,1.25369 10.2282,0.0692 c 5.6255,0.0381 10.2697,0.0475 10.3205,0.021 0.051,-0.0265 -0.4255,-7.31904 -1.0584,-16.20559 z m 25.829,9.97569 c 0,-3.38651 -0.1075,-10.65191 -0.2293,-16.14532 l -0.2215,-9.98802 h -10.836 -10.8361 l 0.1541,1.38906 c 0.085,0.76399 0.5693,7.34219 1.0767,14.61823 0.5074,7.27604 0.9931,13.94354 1.0793,14.81667 l 0.1567,1.5875 9.832,-0.0604 9.832,-0.0604 -0.01,-6.1573 z m -177.4031,6.07968 c 0,-0.0364 -1.9458,-7.26943 -4.3144,-16.07344 l -4.3067,-16.00729 -11.1636,-0.069 c -6.14,-0.038 -11.1637,-0.038 -11.1637,0 0,0.038 0.3478,1.14058 0.7728,2.45027 0.425,1.30968 2.6996,8.45343 5.0546,15.875 2.3551,7.42156 4.3361,13.58304 4.4023,13.69218 0.105,0.17317 20.7392,0.30492 20.7187,0.1323 z m 51.0725,-0.19057 c 0,-0.25791 -4.0163,-19.78788 -5.6782,-27.61139 -0.4893,-2.30335 -0.9412,-4.23942 -1.0041,-4.30239 -0.063,-0.063 -5.1097,-0.0834 -11.2149,-0.0454 l -11.1003,0.0691 3.8322,16.07344 3.8322,16.07344 h 10.6665 c 6.7166,0 10.6666,-0.0951 10.6666,-0.25671 z m 24.6062,-0.14021 c 0,-0.2183 -0.7071,-4.41526 -1.5714,-9.32656 -0.8642,-4.9113 -2.0625,-11.78714 -2.6628,-15.27964 -0.6003,-3.4925 -1.1513,-6.55836 -1.2246,-6.81302 -0.1238,-0.43073 -0.8492,-0.46302 -10.4028,-0.46302 h -10.2697 l 0.9069,4.43177 c 0.4989,2.43747 1.9065,9.2538 3.1282,15.1474 1.2216,5.89359 2.3009,11.16211 2.3985,11.70781 l 0.1774,0.99219 h 9.7602 c 8.4998,0 9.7601,-0.0512 9.7601,-0.39693 z m 25.6646,0.15851 c 0,-0.23 -0.4454,-3.46437 -3.0302,-22.00736 -0.6609,-4.74086 -1.2279,-8.93781 -1.2601,-9.32657 l -0.058,-0.70682 h -10.9275 -10.9276 l 0.1324,0.59531 c 0.073,0.32742 0.659,3.63141 1.3027,7.34219 0.6437,3.71078 1.8596,10.7057 2.7019,15.54427 l 1.5315,8.7974 h 10.2677 c 5.9174,0 10.2677,-0.10102 10.2677,-0.23842 z m 25.6767,0.04 c 0.01,-0.10914 -0.7375,-7.37194 -1.6536,-16.13957 l -1.6658,-15.94113 -10.9075,-10e-6 -10.9074,-2e-5 0.1294,0.7276 c 0.071,0.40019 0.5506,3.82323 1.0652,7.60678 1.9737,14.50935 3.0459,22.25696 3.1946,23.08489 l 0.1544,0.8599 h 10.2893 c 5.6591,0 10.2947,-0.0893 10.3014,-0.19844 z m 76.717,-15.94115 v -16.13958 h -10.9752 -10.9753 l 0.1358,3.63802 c 0.1702,4.5605 0.6481,24.31849 0.6481,26.79651 v 1.84464 h 10.5833 10.5833 z m 23.55,15.54428 c 0,-0.32743 0.6559,-7.31962 1.4552,-15.53822 0.7993,-8.2186 1.4532,-15.21352 1.4532,-15.54427 v -0.60137 h -10.8479 -10.848 v 16.13958 16.13959 h 9.3927 9.3928 v -0.59531 z m -265.1145,-36.8791 c 0,-0.0925 -0.9985,-3.2774 -2.2187,-7.0776 -1.2203,-3.8002 -3.3212,-10.3835 -4.6688,-14.62955 l -2.4501,-7.72011 -1.8796,-0.15246 c -4.3387,-0.35192 -35.9045,-1.79987 -36.0507,-1.65367 -0.088,0.0877 1.8632,4.6589 4.3355,10.15814 2.4723,5.49924 5.6127,12.52538 6.9788,15.61365 l 2.4838,5.61505 16.7349,0.007 c 9.2041,0.004 16.7349,-0.0683 16.7349,-0.1608 z m 27.6808,-0.29487 c -0.075,-0.25466 -1.0264,-3.79677 -2.1144,-7.87135 -4.6287,-17.33382 -5.2467,-19.58731 -5.4142,-19.74283 -0.2186,-0.20302 -23.86,-1.37615 -24.0431,-1.19307 -0.073,0.0729 0.17,1.06283 0.5398,2.19985 0.3698,1.13701 1.8802,5.8773 3.3564,10.53397 2.7902,8.80095 4.9657,15.6361 5.158,16.20573 0.087,0.25765 2.6019,0.33072 11.3826,0.33072 10.6097,0 11.263,-0.0272 11.1349,-0.46302 z m 25.8729,0.098 c -0.077,-0.20077 -1.5362,-6.24319 -3.2425,-13.4276 l -3.1025,-13.06257 -10.7059,-0.54789 c -5.8883,-0.30133 -10.7801,-0.47993 -10.8708,-0.39687 -0.091,0.0831 0.2141,1.52023 0.6771,3.19371 0.463,1.67349 2.1424,7.89451 3.732,13.82448 l 2.8902,10.78178 h 10.3812 c 8.7166,0 10.3588,-0.0585 10.2412,-0.36504 z m 27.6733,0.24379 c 0,-0.0667 -1.1311,-5.56412 -2.5135,-12.21651 -1.3825,-6.6524 -2.5135,-12.31283 -2.5135,-12.57875 0,-0.27678 -0.198,-0.49169 -0.4631,-0.50266 -0.2546,-0.0105 -5.5827,-0.28379 -11.8401,-0.60721 -6.2574,-0.32342 -11.4109,-0.5687 -11.4523,-0.54506 -0.041,0.0236 1.2981,5.82425 2.9766,12.89024 1.6785,7.06599 3.0518,13.03489 3.0518,13.26423 0,0.3731 1.1968,0.41697 11.3771,0.41697 6.2573,0 11.377,-0.0546 11.377,-0.12125 z m 25.804,-0.47407 c -0.074,-0.32742 -0.858,-4.7625 -1.7414,-9.85573 -2.3549,-13.5771 -2.3242,-13.40714 -2.4426,-13.52557 -0.175,-0.17495 -21.3867,-1.21569 -21.5453,-1.0571 -0.079,0.079 0.8968,5.17833 2.1683,11.33189 1.2715,6.15355 2.428,11.75383 2.5699,12.44505 l 0.2581,1.25678 h 10.4341 10.4342 z m 26.9429,0 c -0.053,-0.32742 -0.762,-5.41734 -1.5755,-11.31093 -0.8136,-5.8936 -1.4978,-10.73428 -1.5206,-10.75708 -0.085,-0.0853 -22.7248,-1.17562 -22.7972,-1.09793 -0.072,0.0773 3.672,21.92562 3.9698,23.16594 l 0.143,0.59532 h 10.9384 10.9385 z m 26.8927,-0.0434 c 0,-0.82594 -2.0833,-20.5892 -2.1775,-20.65707 -0.1365,-0.0983 -22.5616,-1.1481 -22.6499,-1.06031 -0.049,0.0486 0.6035,5.09857 1.4496,11.2222 l 1.5385,11.13388 h 10.9197 10.9196 z m 26.8884,-1.01495 c -0.088,-0.9095 -0.408,-5.28505 -0.7101,-9.72344 -0.3021,-4.43838 -0.5891,-8.19777 -0.6377,-8.35419 -0.049,-0.15641 -0.7848,-0.30687 -1.6358,-0.33435 -2.6361,-0.0851 -18.4086,-0.82777 -19.7593,-0.9304 l -1.2785,-0.0971 0.1577,1.48461 c 1.3449,12.66502 2.0024,18.99203 2.0024,19.26908 0,0.27081 2.2272,0.33948 11.011,0.33948 h 11.0111 z m 26.6703,-7.54062 c -0.1009,-5.05685 -0.2122,-9.22895 -0.2473,-9.27133 -0.082,-0.0991 -19.3681,-1.10289 -21.306,-1.10897 l -1.4643,-0.005 0.7178,9.72344 c 0.3947,5.34789 0.7263,9.7532 0.7367,9.78958 0.01,0.0364 4.9077,0.0661 10.8828,0.0661 h 10.8638 l -0.1835,-9.19427 z m 27.1392,0.59531 c 0,-6.70033 -0.073,-8.59998 -0.3307,-8.60356 -0.1819,-0.003 -4.7956,-0.23858 -10.2526,-0.52457 -5.457,-0.28598 -10.3638,-0.52204 -10.9038,-0.52457 l -0.982,-0.005 0.1296,5.35782 c 0.071,2.94679 0.1982,7.05445 0.2819,9.12812 l 0.1522,3.77032 h 10.9527 10.9527 v -8.59896 z m 27.0871,7.87135 c 0.3481,-1.78906 1.2716,-13.06701 1.1196,-13.67268 -0.3433,-1.36789 -0.6211,-1.41437 -11.9073,-1.99254 -5.8031,-0.29728 -10.7729,-0.54051 -11.044,-0.54051 -0.4705,0 -0.4929,0.38418 -0.4929,8.46667 v 8.46667 h 11.0915 11.0915 z m -288.3763,-39.71871 c -0.1383,-0.1263 -1.442,-1.22095 -2.8972,-2.43254 -4.9622,-4.13146 -7.4077,-6.39673 -14.8167,-13.72448 -4.0746,-4.02992 -8.4204,-8.21913 -9.6573,-9.30936 -11.3395,-9.99465 -22.9733,-17.81449 -36.7271,-24.68666 -4.5289,-2.26288 -9.7192,-4.65065 -10.1091,-4.65065 -0.2649,0 -2.4542,5.4548 -2.334,5.81531 0.051,0.15304 2.0145,1.15226 4.3633,2.22049 7.3363,3.33657 12.9157,6.45512 17.9008,10.00553 2.9239,2.08242 7.6219,6.5687 8.9225,8.52031 1.0533,1.58062 5.4451,10.61257 9.6631,19.87274 1.7234,3.78354 3.1771,6.93645 3.2305,7.00648 0.115,0.15087 26.2693,1.50413 30.0799,1.55638 1.5023,0.0206 2.5247,-0.0625 2.3813,-0.19355 z"
       id="path214" /></g></svg>
